<svg xmlns="http://www.w3.org/2000/svg" xmlns:xlink="http://www.w3.org/1999/xlink" width="100" height="50" viewBox="0 0 100 50">
  <defs>
    <clipPath id="clip-Mesa_de_trabajo_3">
      <rect width="100" height="50"/>
    </clipPath>
  </defs>
  <g id="Mesa_de_trabajo_3" data-name="Mesa de trabajo – 3" clip-path="url(#clip-Mesa_de_trabajo_3)">
    <rect width="100" height="50" fill="#fff"/>
    <g id="Grupo_24" data-name="Grupo 24">
      <g id="ODA" style="isolation: isolate">
        <g id="Grupo_1" data-name="Grupo 1" style="isolation: isolate">
          <path id="Trazado_1" data-name="Trazado 1" d="M28.192,52.167C16.617,52.167,12.5,46.1,12.5,35.017S16.525,18,28.142,18s15.65,5.933,15.65,17.067S39.767,52.167,28.192,52.167ZM24.808,41.083a3.324,3.324,0,0,0,3.383,1.867c1.717,0,2.8-.592,3.333-1.817a16.339,16.339,0,0,0,.833-6.083c0-2.85-.25-4.8-.833-6.025s-1.617-1.767-3.333-1.767-2.842.583-3.383,1.808a16.1,16.1,0,0,0-.833,6.033,15.661,15.661,0,0,0,.833,5.95Z" transform="translate(-12.5 -18)" fill="#fa6346"/>
          <path id="Trazado_2" data-name="Trazado 2" d="M57.708,51.628A1.992,1.992,0,0,1,55.7,49.612V20.778a1.992,1.992,0,0,1,2.008-2.008H69.575c11.233,0,15.942,4.85,15.942,16.033,0,10.833-4.167,16.825-15.45,16.825Zm15.4-22.117c-.592-.983-1.917-1.475-4.025-1.475a1.992,1.992,0,0,0-2.008,2.008v10.3a1.983,1.983,0,0,0,2.008,2.008c4.658,0,4.958-2.992,4.958-6.958C74.042,32.453,73.742,30.487,73.108,29.512Z" transform="translate(-19.7 -18.128)" fill="#fa6346"/>
          <path id="Trazado_3" data-name="Trazado 3" d="M100.913,20.387a2.042,2.042,0,0,1,2.008-1.617h13.883a2.15,2.15,0,0,1,2.058,1.617l6.425,28.692a2.075,2.075,0,0,1-2.033,2.55H116a2.1,2.1,0,0,1-2.008-1.575l-.15-.633a2.083,2.083,0,0,0-2.008-1.567h-4.167A2.05,2.05,0,0,0,105.6,49.52l-.1.442a2.058,2.058,0,0,1-2.008,1.667H96.588a2.05,2.05,0,0,1-2.008-2.5Zm8.383,7.308L107.83,36.77a2.083,2.083,0,1,0,4.117,0l-1.425-9.075Z" transform="translate(-26.172 -18.128)" fill="#fa6346"/>
        </g>
      </g>
      <g id="biovajilla" transform="translate(0.392 37.817)" style="isolation: isolate">
        <g id="Grupo_2" data-name="Grupo 2" style="isolation: isolate">
          <path id="Trazado_4" data-name="Trazado 4" d="M12.995,64.41a.75.75,0,0,1,.75-.75h4.55c2.85,0,4.292.958,4.292,2.9a3.458,3.458,0,0,1-.6,2.275.683.683,0,0,0,.1.942,2.583,2.583,0,0,1,.767,2.25q0,3.337-4.508,3.333H13.72a.742.742,0,0,1-.75-.75Zm4.425,1.925a.358.358,0,0,0-.367.367v1.142a.358.358,0,0,0,.367.367h.542c.683,0,.95-.283.95-.967s-.317-.908-.967-.908Zm0,4.408a.358.358,0,0,0-.367.367v1.167a.367.367,0,0,0,.367.367h.575a1.183,1.183,0,0,0,.833-.208,1.017,1.017,0,0,0,.208-.758c0-.75-.292-.958-1.033-.958Z" transform="translate(-12.97 -63.427)" fill="#fa6346"/>
          <path id="Trazado_5" data-name="Trazado 5" d="M27.08,64.343a.692.692,0,0,1,.683-.683h2.692a.692.692,0,0,1,.683.683V74.677a.692.692,0,0,1-.683.7H27.763a.692.692,0,0,1-.683-.7Z" transform="translate(-15.322 -63.427)" fill="#fa6346"/>
          <path id="Trazado_6" data-name="Trazado 6" d="M39.88,75.563c-4.167,0-5.6-2.158-5.6-6.108s1.433-6.075,5.6-6.075,5.583,2.117,5.583,6.092S44.047,75.563,39.88,75.563ZM38.672,71.6a1.192,1.192,0,0,0,1.208.667,1.158,1.158,0,0,0,1.192-.65,8.362,8.362,0,0,0,0-4.317,1.142,1.142,0,0,0-1.192-.633,1.183,1.183,0,0,0-1.208.65,5.75,5.75,0,0,0-.292,2.15A5.65,5.65,0,0,0,38.672,71.6Z" transform="translate(-16.522 -63.38)" fill="#fa6346"/>
          <path id="Trazado_7" data-name="Trazado 7" d="M57.589,74.718a.833.833,0,0,1-.833.658H52.164a.833.833,0,0,1-.833-.658L49.3,64.652a.833.833,0,0,1,.833-.992h2.55a.833.833,0,0,1,.833.733l.833,6.892h.308l.742-6.892a.833.833,0,0,1,.833-.733h2.558a.833.833,0,0,1,.833.992Z" transform="translate(-19.022 -63.427)" fill="#fa6346"/>
          <path id="Trazado_8" data-name="Trazado 8" d="M65.428,64.235a.725.725,0,0,1,.717-.575h4.95a.758.758,0,0,1,.733.575l2.292,10.233a.733.733,0,0,1-.717.908H70.819a.742.742,0,0,1-.717-.558l-.058-.225a.742.742,0,0,0-.717-.558H67.844a.742.742,0,0,0-.742.592v.158a.725.725,0,0,1-.717.592H63.853a.725.725,0,0,1-.717-.892Zm2.992,2.608-.525,3.233a.742.742,0,0,0,.733.833.733.733,0,0,0,.733-.833l-.508-3.233Z" transform="translate(-21.328 -63.427)" fill="#fa6346"/>
          <path id="Trazado_9" data-name="Trazado 9" d="M83.188,63.66a.658.658,0,0,1,.667.658v7.958c0,3.008-1.667,3.2-4.117,3.333H78.78a.75.75,0,0,1-.75-.758V73a.742.742,0,0,1,.75-.75H79.3a.317.317,0,0,0,.208-.108.3.3,0,0,0,.158-.208,3.682,3.682,0,0,0,.067-.442,16.665,16.665,0,0,0,.058-1.75V64.318a.658.658,0,0,1,.667-.658Z" transform="translate(-23.813 -63.427)" fill="#fa6346"/>
          <path id="Trazado_10" data-name="Trazado 10" d="M87.58,64.343a.692.692,0,0,1,.683-.683h2.692a.683.683,0,0,1,.683.683V74.677a.692.692,0,0,1-.683.7H88.263a.692.692,0,0,1-.683-.7Z" transform="translate(-25.405 -63.427)" fill="#fa6346"/>
          <path id="Trazado_11" data-name="Trazado 11" d="M95.853,75.377a.733.733,0,0,1-.733-.733V64.393a.742.742,0,0,1,.733-.733h2.592a.742.742,0,0,1,.733.733v6.942a.742.742,0,0,0,.733.742h2.35a.733.733,0,0,1,.733.733v1.833a.733.733,0,0,1-.733.733Z" transform="translate(-26.662 -63.427)" fill="#fa6346"/>
          <path id="Trazado_12" data-name="Trazado 12" d="M107.443,75.377a.733.733,0,0,1-.733-.733V64.393a.742.742,0,0,1,.733-.733h2.592a.733.733,0,0,1,.733.733v6.942a.742.742,0,0,0,.742.742h2.342a.733.733,0,0,1,.733.733v1.833a.733.733,0,0,1-.733.733Z" transform="translate(-28.593 -63.427)" fill="#fa6346"/>
          <path id="Trazado_13" data-name="Trazado 13" d="M120.108,64.235a.733.733,0,0,1,.717-.575h4.958a.767.767,0,0,1,.733.575L128.8,74.468a.742.742,0,0,1-.717.908h-2.617a.742.742,0,0,1-.717-.558l-.05-.225a.758.758,0,0,0-.725-.558h-1.483a.725.725,0,0,0-.733.592v.158a.733.733,0,0,1-.717.592h-2.5a.733.733,0,0,1-.725-.892Zm2.992,2.608-.525,3.233a.75.75,0,1,0,1.475,0l-.508-3.233Z" transform="translate(-30.441 -63.427)" fill="#fa6346"/>
        </g>
      </g>
    </g>
  </g>
</svg>
